<svg xmlns="http://www.w3.org/2000/svg" fill="none" viewBox="-107.3 -182.2 1262.7 1074.7"><path fill="#2e2e2e" d="M277.188 378.688c7.6 6.3 8.2 13.4 8.2 22.7-.7 6.6-3.5 11.7-8.1 16.4-2.9 4-2.7 5.8-2.2 10.6.1 1.4.3 2.8.4 4.2.2 1.5.3 2.9.5 4.4.1.7.1.7.3 4.2.6 6.8 1.5 12.1 4.9 17.9 3.3 5.8 3.3 5.8 1.8 10.9-3 2.8-3 2.8-6 5-.3.7-.6 1.3-1 2h-2c0 .4 0 .4-.3 2.7-2.8 22.6-2.8 22.6-13.7 30.3-5.2 2.1-8.3 2.2-13.8 2.1h-4.6c-.6 0-.6 0-3.6-.1-1 2.6-2 5.1-3 7.7-.3.7-.3.7-1.8 4.3-1.2 4-1.2 4-.2 9 4.1 2.6 4.1 2.6 9.4 5.3 7.6 4 14.2 8 20.6 13.7.9.8 1.8 1.6 2.8 2.5 21.5 20.3 27.6 50.9 35 78.5 1.3 4.8 2.7 9.6 4.3 14.3.1.5.1.5.9 2.9.4.9.7 1.9 1 2.8.7 2 1.3 4 2 6 5-1 5-1 10-3 1.3.3 2.7.7 4 1-4 3-4 3-9 5-4.3 5.8-1.9 9.6 0 16 .8 3.1 1.7 6.1 2.5 9.2 3.9 13.7 3.9 13.7 5.5 17.8 4.8 1.6 9.8 1.3 14.9 1.4 1.1 0 2.2.1 3.3.1 4.4 0 7.9 0 11.8-2.2 3.2-5.2 4.7-10.7 6.3-16.5.8-2.7 1.6-5.3 2.4-7.9.4-1.3.7-2.6 1.1-4 1.8-5.9 3.7-11.7 5.6-17.6 1.2-3.7 2.4-7.5 3.6-11.3.3-.9.3-.9 1.7-5.4 1.3-4.6 1.3-4.6 1.3-8.9 0-3.7 0-3.7 1.8-5.9 3.7-4.8 4.8-10.6 6.5-16.3 2.7-7 5.7-10.7 12.7-13.5 2.8 0 5.6 0 8.4.2 26.7.7 26.7.7 34.3-4.2 2.9-4.2 5-8.5 7.3-13 2.5-2.9 5.1-5.8 7.8-8.6 1.2-1.3 2.4-2.6 3.7-3.9 8.3-8.2 17.2-16.5 29.5-15.5.7 1 1.3 2 2 3 6.4-.3 6.4-.3 9-3 2.7-.7 5.3-1.4 8-2.1 5.9-1.7 11.5-4.1 17-6.9 6.3-.6 7.3-.7 12 4 .6 5.1-1.9 7.1-5.4 10.3-4.6 3.7-4.6 3.7-6.6 4.7 0 2.2 0 4.4.1 6.6.2 10.1-3 15.3-11.1 21.4-2.6 1.7-5.3 3.4-8 5-.3.7-.6 1.3-1 2 .5 0 .5 0 3.1-.3 1.3-.2 2.7-.3 4-.4.7-.1.7-.1 4-.5 4.7.2 6.5 1.1 9.9 4.2 3.1 5.4 1.4 9.7-.2 15.5-.3.9-.6 1.8-.9 2.8-3.2 11.1-6.8 22-10.4 32.9-2.6 8.2-5.2 16.4-7.7 24.6-1.9 6.5-4 12.9-6 19.3-2.4 7.4-4.6 14.8-6.8 22.3-.5 1.8-1 3.7-1.6 5.6-1 3.7-2.1 7.5-3.1 11.2-.3.9-.3.9-1.5 5.2-.5 1.6-.9 3.1-1.3 4.7-1.5 3.9-1.5 3.9-5.5 7.9-4.4.3-8.5.4-12.8.3h-7.9c-4.1 0-8.2 0-12.3-.1-28.1-.4-28.1-.4-39 8.8-2.9 1.5-5.8 2.9-8.8 4.3-4.2 1.9-8.4 3.8-12.6 5.9-3.6 1.8-3.6 1.8-5.6 1.8v2c1.7-.1 3.3-.3 5-.5 7.7-.6 15.3-.6 23-.6h364.7c3.5.1 6.9.6 10.3 1.1-3-5-3-5-6.8-7.4-4.4-2.7-6.9-5.7-10.2-9.6-5.4-3.7-11-3.4-17.3-3.3h-3.4c-3.7 0-7.5 0-11.2.1h-7.7c-6.8 0-13.7 0-20.5.1-10.9 0-21.8.1-32.7.1h-11.4c-2.4.1-4.7.1-7 .1h-3.2c-7.4 0-7.4 0-9.6-1.1.3-1.6.7-3.3 1-5 23.7-1.2 47.4-1.1 71.1-1.1 4.1.1 8.2.1 12.3.1h29.6c-.3-1.6-.6-3.3-1-5h-2c-3.7-6.7-6.4-13.5-8.9-20.8-1.6-4.6-3.6-9-5.6-13.5-1.8-4.5-3.1-9-4.5-13.7-.8-2.4-1.6-4.9-2.5-7.4-2.5-7.5-4.4-15.1-6.3-22.9-2-8.4-2-8.4-4.2-11.7l-3-9c-.6-1.6-1.3-3.3-2-5 0-5 0-5 3-8-1.2-6.1-2.4-6.4-7.4-9.7-17.4-12-25.7-22-31.4-42.5-1.2-3.8-1.2-3.8-3.2-6.8 1.1-5.4 1.8-6.7 6-10 5.9 0 7.2.3 11.9 3.1.5.4.5.4 3.1 2s5 3.4 7.4 5.3c3.6 2.6 3.6 2.6 8.6 3.6 1.3-1 2.7-2 4-3 7.7-.2 13.7 5.5 18.4 11.1 3.9 5.9 6.1 10.3 7.4 17.2 1.6 7.4 3.6 11.4 9.2 16.7 5.4 5.8 10 11.6 14.4 18.1 2.6 3.9 5.2 7.6 7.9 11.4 13.7 19.4 13.7 19.4 16.7 25.5h3c.2-.4.2-.4 1-2.6 3.5-9.6 7.4-19 11.3-28.5 2.5-5.8 4.8-11.8 6.8-17.8 9.5-27.6 25-42.6 51.9-53.1 5-2 5-2 7-4 .5-3.6.5-3.6.8-8 .1-1.4.2-2.9.4-4.4-.2-3.6-.2-3.6-3.2-5.6-1.9-.1-3.8-.2-5.8-.4-7.6-.5-11.9-3.2-16.2-9.6-.9-4.1-.9-4.1-1.5-8.7-1.3-8.7-3.2-15.2-8.5-22.3.9-4.3 2.3-6.4 5-10 2.8-6.7 3.4-12.6 3.5-19.8.6-17 3.6-31 18.7-40.8 1.9-1.2 3.9-2.3 5.8-3.4 1-.5 2-1.1 3-1.7 10.3-5.5 20.4-6.9 32-6.3.6 0 .6 0 3.5.2 19.7 1.7 36.6 13.7 47.5 29.8 5.5 9.7 9 19.6 12.1 30.3 5.3 18.3 13.1 29.4 27 42.3 16.2 15.1 25.2 28.6 26.8 51.3 1.2 13.6 4.1 21.9 13.1 32.1 1.2 1.4 2.4 2.9 3.7 4.3 3.3 3.7 3.3 3.7 6 6 2.9 3.4 2.9 5 2.9 9.4 0 1.3 0 2.6.1 4-.1 1.5-.1 3-.1 4.5v30.8c0 7.5-.1 15-.1 22.5 0 9.6-.1 19.2-.1 28.8v32.7c0 4.9-.1 9.9-.1 14.8v12.1c-.3 3.1-.3 3.1-2.3 8.1-.6 3.2-1.1 6.5-1.6 9.7-.1 1-.1 1-.8 5.8-.2 1.1-.3 2.1-.5 3.1-.5 3.2-.9 6.3-1.4 9.5-.6 4.1-1.2 8.3-1.9 12.4-1.5 10.2-3.1 20.4-4.8 30.5-.2 1.2-.4 2.3-.6 3.5-.6 3.6-1.2 7.2-1.9 10.8-.2 1.1-.4 2.2-.6 3.4-1 5.7-1.6 8.1-5.9 12.3-4.4.5-6.3.5-10-2-3.3.3-6.7.6-10 1-4.6.2-9.2.2-13.8.1-1.3 0-2.7.1-4.1.1h-224.7c-9.2 0-18.5 0-27.7.1h-52.4c-5.4 0-9.2-.3-14.3-2.3-1-4.8-.8-6.7.3-11.3.3-1.1.6-2.3.9-3.5.3-1 .5-2.1.8-3.2.3-1.3.6-2.7 1-4.1 6.9-25.9 20.6-42.5 46-51.9 7.1-2.2 14.2-4.1 21.3-5.9.5-.1.5-.1 3.2-.7 15.1-3.8 30.2-7.5 45.5-10.4 2-.4 4.1-.8 6.1-1.2 9.9-1.9 19.8-3.8 29.8-5.4 18.8-3.1 18.8-3.1 21.1-5.4-.2-13.3-.8-28.1-4-41-4 2-4 2-6.7 6.1-9.7 14.5-22.1 22.8-39.6 24.3-4.5.7-7.5 2.4-10.7 5.6q-4.2.3-8.4.3h-17.9c-4.5.1-9.1.1-13.7.1h-21.6c-11.4.1-22.8.1-34.2.1-20.4.1-40.8.2-61.2.2-7.2.1-14.4.1-21.6.1h-19.5c-2.9 0-5.7.1-8.5.1h-4.8c-3.6.1-3.6.1-5.6 1.1q-.3 4.8-.3 9.6v9.7c0 3.5-.1 7-.1 10.5 0 7.4-.1 14.8-.1 22.1 0 8.6-.1 17.2-.1 25.7 0 3.5-.1 6.9-.1 10.4v11.8c-.3 4.2-.3 4.2-2.3 6.2-1.3-.3-2.6-.6-4-1v-4l-.3-37c-.1-6.4-.1-12.7-.2-19.1 0-6.1-.1-12.2-.1-18.3-.1-2.4-.1-4.7-.1-7 0-3.3-.1-6.6-.1-9.8v-5.7c-.2-4.1-.2-4.1-1.2-5.1-2-.1-4-.1-6-.1-1 .1-1 .1-6 .1-1 5.1-1.1 9.6-1.2 14.9v2.9c-.1 3.3-.1 6.5-.1 9.8 0 2.3 0 4.5-.1 6.8 0 5.9-.1 11.8-.1 17.8-.1 6-.1 12.1-.2 18.2l-.3 35.6c-1.3.3-2.6.7-4 1-3.3-3.3-2.3-7.1-2.3-11.7v-3c-.1-3.3-.1-6.7-.1-10 0-2.3 0-4.6-.1-6.9 0-6.1-.1-12.2-.1-18.3 0-6.2-.1-12.4-.1-18.6l-.3-36.5c-4.5-1.7-8.2-2.2-13.1-2.2-1.4 0-2.8-.1-4.3-.1s-3 0-4.6.1c-1.7 0-3.3-.1-5-.1h-27.5c-7.9 0-15.8 0-23.7.1-9.1 0-18.2 0-27.3-.1h-37.4c-5.2 0-10.4 0-15.6.1-.8 0-.8 0-4.7-.1-9.9.1-18.3 1.2-27.6 4.8-5.3 1.9-10.5 3.5-16 4.8-5 1.2-10 2.5-14.9 3.8-17.8 4.8-38.2 1.8-52.8-9.9-.4-.4-.4-.4-2.5-2.2h-2c-.4 10.6-.4 10.6 3 14 9 2.2 18.1 2.6 27.4 3 8.9.5 17.7 1.1 26.5 2.5 5.2.8 10.4 1.1 15.6 1.4 11.6.9 23 2.3 34.5 4.1l6.9.9c74.2 10.7 74.2 10.7 90.5 42.9 5.1 11.8 10.1 23.7 12.6 36.2-1.6.3-3.3.7-5 1-2.7-4.6-4.1-8.2-5.7-13.2-7.5-23-17.5-41.3-41.5-49.2-8.6-2.4-17.2-4.4-26-5.9-2.7-.5-5.3-1-7.9-1.6-6.1-1.3-12.1-2.2-18.3-3.1-1.2-.2-2.4-.3-3.7-.5-10-1.4-19.9-2.5-29.9-3.5-.9-.1-.9-.1-5.4-.5-7.5-.7-15.1-1.5-22.6-2-6-.5-6-.5-11.5-1.5-6.7-1.1-13.4-1.5-20.2-1.9-26.8-1.6-26.8-1.6-32.3-7.1 1-.4 2-.9 3-1.3 5.6-5 4-12.7 3.7-19.8-1-8.4-4.2-13.8-8.7-20.9-1.4-2.8-2.8-5.7-4.1-8.5-.3-.8-.3-.8-2-4.4-2.2-4.9-4.4-9.8-6.5-14.8-1.4-3.2-2.9-6.4-4.4-9.7-3.9-8.3-7-17-10.1-25.6-1.7-4.7-3.4-9.3-5.3-13.9-1.8-4.3-3.7-8.7-5.4-13-.4-1.1-.8-2.1-1.3-3.2-.9-2.9-.9-2.9-.9-7.9 1.3-.3 2.7-.6 4-1 4.2 7.9 7.5 15.8 10.6 24.1q2.4 6.45 5.1 12.6c2.3 5.6 4.4 11.3 6.6 16.9 1.8 4.5 3.7 9 5.7 13.4 1.2 3 2.4 5.9 3.6 8.9 4.2 10 9.2 19.6 14.4 29.1.4.8.4.8 2.6 4.8 8.6 15.1 19 22.5 36.4 24.2 20 1.4 38.4-5.1 56.9-11.9 5.4-1.9 11-3.7 16.5-5.5 4.5-1.5 8.7-3.4 12.9-5.4 2.7-1.2 2.7-1.2 6.9-2.5 17.1-6 17.1-6 22.8-11.7.1-7.8-1-15.5-3-23-.2-.9-.2-.9-1.4-5.2-1.4-4.3-2.4-6.8-5.6-9.8-5-1.2-9.8-1-15-.9-1.1.1-2.2.1-3.3.1-3.5.1-7 .2-10.6.3-7.9.1-15.9.3-23.8.5-2.2 0-4.4 0-6.6.1-3 .1-6.1.1-9.1.1-1.8.1-3.5.1-5.3.1-4.3-.3-4.3-.3-8.3-3.3-1.3-3.6-1.3-3.6-2.5-7.9-1.4-5-2.7-9.9-4.4-14.8-1.9-5.5-3.4-11.2-5-16.8-1.9-7.1-3.9-14.1-6.1-21-2.2-6.8-4.1-13.6-6-20.5q-4.05-15.15-9-30c-.5-1.5-1-3-1.5-4.6-4.5-13.2-9.7-23.3-19.5-33.4-.5-.6-.5-.6-3.2-3.5-11.6-10.6-26.3-17.8-40.8-23.5-1.1-.4-2.1-.9-3.2-1.3-30.7-12.2-58-7.5-85.8 9.3-4.5 3.2-8.8 6.5-13 10-1.2 1-2.5 2-3.7 2.9-12.1 11.5-20.1 25.3-27.3 40.1-.7 1.3-1.3 2.6-2 3.9-2.1 4.3-3.8 8.6-5.6 13-.5 1.5-1.1 3-1.7 4.5-1.8 4.8-3.2 9.7-4.7 14.6-.3.9-.3.9-1.6 5.3-.3.9-.3.9-1.6 5.2-.2.9-.2.9-1.6 5.3-1.2 4.2-1.2 4.2-1.2 6.2 1.8.6 3.6 1.1 5.5 1.7 23.2 7.8 30.7 28.9 37.5 50.3 1.2 3.6 2.4 7.3 3.6 10.9l9.3 27.9c.4 1 .7 1.9 1 2.9.7 2 1.4 4.1 2 6.1 1.6 4.7 3.2 9.4 4.8 14.2 2.3 6.8 4.5 13.6 6.5 20.6 2.9 10.1 6.3 20.1 9.7 30.1 2.3 6.9 4.6 13.8 6.7 20.8 1.8 5.6 3.7 11.2 5.8 16.8 2.6 6.8 5 13.6 7.2 20.6.5 1.6 1 3.2 1.5 4.9.9 4.2.9 4.2-1.1 9.2-4.5 3-9.3 2.3-14.6 2.2h-3.6c-3.9 0-7.9-.1-11.8-.1-2.8 0-5.5 0-8.3-.1-5.7 0-11.5 0-17.2-.1-7.4-.1-14.8-.1-22.2-.1-5.7-.1-11.3-.1-17-.2h-8.2c-3.8 0-7.6-.1-11.4-.1h-3.4c-7.8-.1-7.8-.1-12.3-3.5-1.5-3.9-1.5-3.9-2.9-8.9-.5-1.8-1-3.5-1.5-5.4s-1-3.7-1.6-5.7c-.5-1.8-1.1-3.7-1.6-5.6-4.1-14-4.1-14-5.3-20.2-1.3-6.3-3.1-12.5-4.8-18.8-2.6-9.2-5.1-18.5-7.4-27.8-2-8.2-4.1-16.3-6.2-24.5-.5-1.9-1-3.8-1.5-5.8-1.2-4.3-1.2-4.3-2.2-5.3-.1-3.2-.1-6.4-.1-9.6v-38.2c.1-6.2.1-12.4.1-18.6v-36.6c2.5-1 5.1-2 7.6-2.9 1.4-.6 2.9-1.1 4.3-1.7 5.7-1.9 10-2 16-1.8h3c3.1.1 6.1.3 9.1.4 1.8.1 3.7.2 5.6.3 4.1.2 8.3.4 12.4.7.3-1.9.5-3.9.8-5.9.9-5.7 2.3-10.7 4.2-16.1l2.4-7.5c1.9-5.7 4.1-11.1 6.6-16.5.8-1.8 1.5-3.7 2.3-5.5 6.9-16.7 15.2-31.5 27.7-44.5.8-.8 1.5-1.6 2.3-2.4 15.9-16.8 38.2-30.5 61-35.3 7.3-1.7 8.9-4 12.7-10.3 4.8-11.9 4.3-19.3-1-31-1.3-3.1-2.6-6.2-3.9-9.4-2.2-5.2-4.5-10.5-7-15.7-5.4-12.5-6.3-26.5.5-38.8 4.2-6.2 8.4-9.6 14.9-13.3 4.1-2.9 6-7.4 8.5-11.8 14.4-13.3 29.6-10.6 47.3-6.9 14.3 2.8 27.7-8.9 39.9-2.4m-19.8 46.8c-5.2 1.5-10 2-15.4 2.5-2.5 2.6-2.7 4.5-3.6 7.9-2.1 7-5 13.1-10.4 18.1-5.8.7-6.8-.8-11-5-5.9 1.2-6.4 1.8-9 7-.3 4.4 0 8 1 12.3.1 7.9-4.5 13.3-10 18.6-3 2.1-3 2.1-6.2 3.9-4 3.1-4.4 6.4-5.8 11.2-.7 1.7-1.4 3.5-2.1 5.3-1.9 4.7-1.9 4.7-2.9 9.7 2.2 2.2 7.5 1.9 10.3 2.3 10.1 1.4 18.6 4.1 27.7 8.7 5-1 5-1 8-6 2.8-7 3.4-11 1-18 1.8.1 3.5.2 5.3.3l6.9.3c1.2.1 2.3.2 3.5.2 11.8.6 11.8.6 16.5-3.8 3.3-5.4 4-11.8 5.3-18 1.6-5.4 3.9-8.7 7.5-13 3-4 3-4 2.4-6.8-.9-2.1-1.8-4.1-2.8-6.2-3.2-8.1-4.6-16.6-5.2-25.2-.4-5.8-.4-5.8-2.4-7.8-4 0-4 0-8.6 1.5m597.6 45.5c-2.7 4.1-2.5 7.3-2.8 12.1-.7 7.5-1.8 12.6-6.2 18.9-2 5-2 5-.3 7.8.8 1 1.5 2.1 2.3 3.2 2.8 6.8 3.6 13.3 4.2 20.6 1 4.2 2.4 5.8 5.8 8.4 5.2 1.3 10.3 1.3 15.7 1.5 3.3.5 3.3.5 5.3 3.5.2 2.7.2 5.5.1 8.2v4.4c0 1.1-.1 2.3-.1 3.4h3c13.6-45.2 13.6-45.2 5-58-4.7-4.8-9.9-9.1-15.2-13.4-5.5-5.2-10.1-11.1-13.4-17.9-.2-.5-.2-.5-1.4-2.7Zm-344 83c-2 .8-4 1.5-6 2.2-6.9 2.6-13 6.1-19.3 9.8-4.1 2.2-8.2 3.8-12.7 5v-6c.7-.2.7-.2 4.4-1.2 4.6-1.8 4.6-1.8 5.6-5.8-17.8 2.1-31.4 21.9-40 36v3c8.9.8 17.8 1.2 26.8 1.3.5 0 .5 0 3.5.1 7.2.1 12.2-.9 18.7-4.4.7-.3.7-.3 4.2-2.1 1.3-.7 2.5-1.4 3.9-2.1.6-.4.6-.4 3.9-2.2 1-.5 2-1 3-1.6-1.5-3-3.9-3.1-7-4 1-3 1-3 4-6 1-1.6 2-3.3 3-5 1.7-1 3.3-2 5-3-.2-.5-.2-.5-1-3-5 1.3-7.9 3.9-12 7-1 .3-2 .7-3 1 1.7-8.9 7.4-11.1 15-15l9-3c1.3-1.3 2.7-2.6 4-4-5.5-1.4-7.8.6-13 3m174 17 1 2Zm-172 3c-.3.7-.6 1.3-1 2h2c-.3-.6-.6-1.3-1-2m319 26.3c-11.3 18.1-18.5 39.8-26 59.7-1.1 2.9-2.3 5.7-3.5 8.6-.6 1.4-1.2 2.8-1.8 4.3-.3.7-.3.7-1.7 4.1-.5 1.2-1 2.5-1.5 3.7-1.7 3.9-3.5 7.3-6.5 10.3-1-1-1-1-1.5-5.7-1.4-8-5.9-13.8-10.5-20.3l-2.7-3.9c-5.9-8.8-12.1-17.5-18.3-26.1-.7-1-1.5-2.1-2.3-3.2-7.7-10.8-7.7-10.8-13.7-10.8q-4.65 2.85-9 6c-1 .7-2.1 1.4-3.2 2.1-8.5 5.9-8.5 5.9-9.8 10.9l3 6c1.1 3.7 2.1 7.3 3 11 1.7 6.5 3.7 12.7 6 19 1.3 3.9 2.6 7.7 3.9 11.6.3 1 .7 2.1 1.1 3.2l4.5 13.8c5.1 15.6 11.8 31.7 22.5 44.4.3.4.3.4 2 2.5 9.5 11.1 18.9 17.4 34 16.5 7.4-1 12.3-4.5 18-9 .5-.4.5-.4 3-2.3 3.1-2.8 5.5-5.6 8-8.9.8-1.2 1.7-2.3 2.5-3.5 1.6-2 3.1-4.1 4.6-6.1 4.6-6.1 4.6-6.1 7.9-7.2 4.4 4.4 3.9 19 4.6 25.1.1 1.2.2 2.3.4 3.4 0 .6 0 .6.3 3.3.1 1.1.3 2.1.4 3.2.3 2.7.5 5.4.7 8.1.6 3.9.6 3.9 3.6 7.9 2.9.7 2.9.7 6.4 1 .6 0 .6 0 3.9.3l4.2.3c2.9.2 5.9.4 8.8.7 1.5.1 2.9.2 4.5.3 6 .6 12 1.3 18.1 2 24.6 2.9 49 3.3 73.5-.5.5 0 .5 0 3.2-.5 12.9-2.1 12.9-2.1 17.4-6.6 1.6-9 6.7-39.3 0-46-2 .3-4 .6-6 1-25 1-46.2-1.2-66-18-.6-.5-.6-.5-4-3.2-7.9-7.5-13.5-15.9-18-25.8-.6-1.2-1.1-2.5-1.7-3.8-5.3-13.5-2.9-30.7.7-44.3 4.2-16.7-.9-27.4-9.2-41.7-4.2-7.3-6.1-13.9-7.8-22.2-10.5-10.5-44 16.9-50 25.3m-132-22.3c.7 1.7 1.3 3.3 2 5h5c-1-3-1-3-4-5Zm-13 0c-1.1 16.5 9.3 25.2 21.1 34.8 2.6 1.9 5.2 3.8 7.9 5.6 4 2.6 4 2.6 8 6.6 6.2-.7 10.4-3.9 15-8 2-9.8-2.9-20.7-8-28.9-6.5-6.7-6.5-6.7-12-8.1 0 4.1.8 7.1 2 11-5-2-5-2-9-6-.3.2-.3.2-2 1 .3 3 .7 6 1 9h-6c-.3.3-.6.7-1 1-2.3.1-4.7.1-7-.0005000000041945896v-4c2.3.3 4.6.7 7 1-1-4-1-4-4.9-5.9-4.6-2.3-5-3.6-7.1-8.1-1.6-.3-3.3-.6-5-1m-279 136c.2 4.6.8 8.4 2.4 12.8 1.8 4.8 2.4 9.4 2.9 14.6.2.8.5 1.7.7 2.6 5.6 1.4 7.2-.9 12-4 .8-.3.8-.3 4.9-1.9 4.3-1.8 6.5-3.1 9.9-6 5.3-3.9 9.1-3.2 15.3-1.6 2.9.5 2.9.5 6.9-1.5-2.2-10.8-10.3-16.7-19.8-21.4-12.3-3.8-24.5-.7-35.2 6.4"/><path fill="#00b050" d="M772.414 168.77h36.2c80.5 0 80.5 0 109.4 22.2 1 .7 2 1.4 3 2v2h2c8.9 9.7 15.7 19.5 22 31 .7 1.4 1.5 2.7 2.2 4 5.1 11.5 6.5 22.3 6.3 34.8v4.5c-.3 17.7-5 31.4-13.5 46.7-.4.7-.4.7-2.1 4-.7 1-1.3 2-1.9 3h-2c-.7 1.7-1.3 3.3-2 5-21.4 24.4-47.7 35.7-79.9 36.7-3.1.3-3.1.3-5.1 2.3-.8 2.1-1.4 4.2-2.1 6.4-.2.6-.2.6-1.1 3.9-.4 1.3-.8 2.7-1.3 4.1-.3 1.3-.7 2.6-1.1 4-1.9 6.2-3.6 12.3-5.1 18.5-1.3 5.1-1.3 5.1-2.3 6.1-5 0-5 0-7.5-2.7-.9-1.2-1.7-2.4-2.6-3.7-1-1.4-2-2.7-2.9-4.1-5.6-8.3-10.9-16.6-16.2-24.9-4.7-7.4-4.7-7.4-6.8-9.6-4.3-.1-8.6-.1-13-.0004687500005502443h-12c-32.9.1-32.9.1-46-6-1.3-.5-2.6-1.1-4-1.7-29.4-13.6-50.8-40.1-56.9-72-6.1-36.3 5.9-66.1 31.7-91.5 12-10.9 26.3-19.2 42.2-22.8 1.4-.3 2.9-.7 4.4-1 9.2-1.7 18.6-1.2 28-1.2m-17.2 75.7c-.9.1-.9.1-5.6.2l-13.6.3v2c5.4 1.1 10.5 1.2 15.9 1.2h82c13.4 0 26.7-.1 40.1-1.2-2.9-2.8-4.8-2.2-8.8-2.3h-4.4c-1.5-.1-3.1-.1-4.7-.1h-4.9c-5.2-.1-10.4-.1-15.6-.2-3.4 0-6.9-.1-10.3-.1-23.4-.3-46.7-.4-70.1.2m124.8.5c-.7.7-1.3 1.4-2 2 1.3-.3 2.6-.6 4-1-.7-.3-1.3-.6-2-1M27.563 650.563c1 0 2 .1 3 .1 2.1 0 4.2.1 6.3.2 3.1.1 6.2.2 9.3.2 21.6.4 37.3 5.7 49.8 23.9 5.6 9.5 8.7 19.7 12 30 1.2 3.7 2.4 7.3 3.7 10.9l9.3 27.9c.1.5.1.5.9 2.9.7 2 1.4 4.1 2.1 6.1 1.5 4.7 3.1 9.5 4.7 14.2 2.3 6.8 4.5 13.7 6.5 20.6 3 10.2 6.4 20.1 9.7 30.2 2.4 6.8 4.6 13.7 6.8 20.7 1.7 5.7 3.6 11.2 5.8 16.8 2.5 6.8 4.9 13.7 7.1 20.6.5 1.6 1 3.3 1.6 4.9.8 4.2.8 4.2-1.2 9.2-4.5 3.1-9.3 2.3-14.5 2.2h-3.6c-4 0-8 0-11.9-.1h-8.3c-5.7-.1-11.5-.1-17.2-.2-7.4 0-14.8-.1-22.2-.1-5.6-.1-11.3-.1-17-.1-2.7-.1-5.4-.1-8.2-.1-3.8 0-7.6-.1-11.4-.1h-3.4c-7.8-.1-7.8-.1-12.3-3.5-1.5-3.9-1.5-3.9-2.8-8.8-.5-1.8-1.1-3.6-1.6-5.5-.5-1.8-1-3.7-1.6-5.7-.5-1.8-1.1-3.7-1.6-5.6-4.1-14-4.1-14-5.3-20.1-1.3-6.4-3-12.6-4.8-18.9-2.6-9.2-5.1-18.4-7.4-27.7-2-8.2-4.1-16.4-6.2-24.6-.5-1.9-1-3.8-1.5-5.8-1.2-4.3-1.2-4.3-2.2-5.3-.1-3.2-.1-6.3-.1-9.5v-20c0-6.1.1-12.2.1-18.3v-55.2c2.6-1 5.1-1.9 7.7-2.9 1.4-.6 2.8-1.1 4.3-1.7 5.5-1.9 9.7-2 15.6-1.8M1048 696c0 11.5.1 23 .1 34.6 0 5.3 0 10.6.1 16V781c-.2 4-.2 4-2.2 9-.6 3.2-1.1 6.4-1.6 9.7-.3 1.9-.6 3.8-.9 5.8 0 .5 0 .5-.4 3.1-.5 3.2-.9 6.3-1.4 9.5-.6 4.1-1.3 8.3-1.9 12.4-1.5 10.2-3.1 20.3-4.8 30.5-.2 1.1-.4 2.3-.6 3.5-.6 3.6-1.2 7.2-1.9 10.8-.2 1.1-.4 2.2-.6 3.4-1 5.7-1.6 8-5.9 12.3-5.1.6-6.3.7-10-3-.2-4.1-.2-8-.1-12.1.5-17.1-2-32.7-6.7-49.1-.4-1.5-.9-3-1.3-4.6-2.6-9.2-5.6-18.2-8.9-27.2-2.1-5.7-3-8.9-3-15l2-2c.1-3.3.1-6.7 0-10h-1c0-5.1 0-10.1-.1-15.2v-12.4c.2-7.8.2-7.8 4-10.5 4.1-1.9 4.1-1.9 8.8-3.7 15-6.2 26.8-15.3 35.3-29.2 2-1 2-1 3-1"/><path fill="#2e2e2e" d="M577 113c.4.2.4.2 2.7 1.5 8 4.8 14.6 11 21.3 17.5 1.2 1.1 2.4 2.2 3.7 3.4C617.8 149.7 627 167 631 186c.3.7.7 1.3 1 2 1.8 13.2 2.1 27-1 40-.1.6-.1.6-.9 3.7-1.8 7.1-3.8 13.7-7.1 20.3-.4.9-.8 1.8-1.2 2.8-15.1 32.4-47 50.9-80.8 58.2-1.3.3-2.7.6-4.1.9-21.7 4.2-44.7 3.4-66.4-.6-9.6-1.7-14.6-1.4-22.6 4.1-1.3.9-2.7 1.9-4 2.8-4.5 3.3-9 6.6-13.4 10.1-25.7 19.8-25.7 19.8-35.5 23.7-.7-.3-1.3-.7-2-1 1.3-11.9 5.2-23.3 8.5-34.8 1.6-5.7 3.2-11.4 4.7-17.1.7-2.6 1.4-5.2 2.1-7.7 1.3-6.5-.9-9.3-5.1-13.9-25.7-28.8-34.6-62.2-27.2-100.5.9-2.7 1.9-5.4 3-8 .6-1.5 1.2-3.1 1.8-4.7 14.3-33.9 42.8-57.7 78.6-66.4.7-.1.7-.1 4.6-.9 1-.2 2-.5 3-.8 35.9-8.6 78.2-4.1 110 14.8m-128-3c-.7.3-.7.3-4 1.6-14.7 6-26.7 14.1-38 25.4l-2.5 2.5c-5.4 5.7-9.1 11.5-12.5 18.5-.7 1.4-1.4 2.8-2.2 4.2-14 29.1-12.6 65.4 2.8 93.7 5.3 8.8 12.1 17.1 19.7 24.1 3.8 4.2 4.1 6.7 3.2 12.2-.4 1.2-.7 2.4-1 3.6-.4 1.4-.7 2.8-1.1 4.2-.5 1.7-.9 3.3-1.4 5-.1.5-.1.5-.8 3.1-5.6 20.1-5.6 20.1-7.4 25.4-.8 2.5-.8 2.5-.8 6.5 5.5-1.1 8.1-3.3 12.3-6.8 3.2-2.6 6.6-5 9.9-7.3s6.6-4.6 9.8-6.9c1.2-.8 2.4-1.7 3.6-2.6l6.3-4.5c12-8.5 12-8.5 22.1-5.9 5.3.8 10.7 1.4 16 2 1.8.2 3.6.4 5.5.6 22.9 1.7 46.7 1.2 68.5-6.6 1.4-.5 2.8-1 4.3-1.5 21.6-8.3 38-22.2 50.7-41.5l1.8-2.7c15.7-24.6 15.7-58 6.3-84.8L618 167c-.7-1.6-1.4-3.1-2.1-4.8-6.1-11-13.7-21.5-22.9-30.2h-2v-2c-12-10.1-26.1-17-41-22-1.3-.5-2.6-1-4-1.5-30.4-9.3-67.4-8.6-97 3.5"/><path fill="#2e2e2e" d="M557 195c5.7 3.4 8.6 5.8 9.4 12.6-.7 5.6-3.5 8.5-7.4 12.4-6.3 1.7-8.2 1.6-13.5-2.2-4.4-4.8-5-7.4-4.5-13.8 3.6-6.9 8.2-9.8 16-9m-49 0c6.2 3.7 7.8 5.1 8.5 12.4-.5 5.9-1.1 7.8-5.5 11.6-5.2 2.1-6.8 2.4-12 1-5.6-4.1-6.9-5.3-7.3-12.3.4-7.3.4-7.3 4.3-10.7 4.5-2.3 7-2.4 12-2m-51 1c3.9 3.2 6.8 6.2 7.4 11.3-.7 6.3-3.5 9-8.4 12.7-6.9.8-10.3.2-15-5-2.2-5.5-2.5-7.4-1-13 5.4-6.3 8.9-8.4 17-6M326 653c1 .3 2 .7 3 1-1.6.3-3.3.7-5 1Zm122 65 2 1Z"/></svg>
