<svg xmlns="http://www.w3.org/2000/svg" fill="none" viewBox="-126.6 -88 1426.3 1035.1"><path fill="#2e2e2e" d="M479.688 154.875c.9 0 .9 0 5.2.2 1.6.1 3.3.2 4.9.3 1.5.1 3 .1 4.5.2 3.7.4 3.7.4 7.7 2.4 2.3.4 4.7.7 7 1 2.1 2.1 1.7 6.2 2 9 1.3.4 2.7.7 4 1v4h4v-2c51.3 9 100.3 45.3 131.5 85.7 2.2 2.9 4.5 5.8 6.8 8.6 5.6 7.1 10.2 14.3 14.1 22.4 1.8 3.7 3.7 7.5 5.6 11.2 23.5 47.1 32.4 100.1 23 152.1-.2 1.5-.5 3-.7 4.5-6.3 35.3-22.5 71.8-44.4 100.1q-2.1 2.7-3.9 5.4h-2c-.6 1.3-1.3 2.7-2 4-1.6 1.9-3.2 3.7-4.9 5.5-.4.5-.4.5-2.6 2.9-2.1 2.2-4.3 4.4-6.5 6.6-.6-1.3-1.3-2.6-2-4l-3-3c-4-4-4-4-4-6h-2c-2-5-2-5-2-11h-2c-2-3.9-1.6-8.7-2-13h-5c-1.9-1.9-1-5.4-1-8h3c.3-2.8.5-5.6.8-8.3.1-1.6.2-3.2.4-4.8-.1-1.3-.1-2.5-.2-3.9-1.3-.6-2.6-1.3-4-2l-1-1c-3.3-.7-6.6-1.3-10-2v-2c-1.8-.1-3.5-.3-5.4-.4-5.6-.6-5.6-.6-7.6-1.6v-2c-3.6-1.4-7.3-2.8-11-4v-2c-1.3-.6-2.6-1.3-4-2-1-.8-1.9-1.7-2.9-2.5-3.1-2.5-3.1-2.5-8.1-3.5v-2c-4.3-.6-8.6-1.3-13-2 4 4 4 4 8.1 6.3 5.7 3.1 10.7 6.8 15.9 10.7l4.5 3.3c14.8 12.2 23.5 26.1 32.5 42.7.8 1.4 1.5 2.8 2.3 4.3 3.2 5.8 6.1 11.6 8.7 17.7 1.7 3.5 3.5 7 5.3 10.4 1.8 3.8 3.2 7.7 4.7 11.6l3.6 7.5c.7 1.3 1.4 2.7 2.1 4.1 3.1 6 6.3 11.9 9.4 17.8 1.9 3.6 1.9 3.6 3.9 8.6 1 1.7 2 3.3 3 5 1 2.4 2 4.7 3 7 1.2 2.4 2.3 4.7 3.5 7.1.6 1.2 1.2 2.3 1.8 3.5.6 1.1 1.1 2.3 1.7 3.4.5 1.1 1 2.1 1.6 3.1 1.8 3.7 3.8 7.4 5.8 11 1 1.9 2.1 3.7 3.1 5.6 2.7 5.2 5.6 10.3 8.6 15.3.4.6.4.6 2 3.3 3.5 5 6.8 6.1 12.7 6.8 3.9.5 7.6 1 11.4 2 8.5 2.1 17.1 2 25.8 1.9.4-1.3.8-2.6 1.3-3.9 1.6-4.8 3.5-9.5 5.5-14.2 4.6-10.8 9-21.6 13.1-32.6 4.3-11.7 9-23.2 13.8-34.7 5.2-12.8 10.2-25.5 14.5-38.5 5.5-15.3 5.5-15.3 12.8-20.1 4.6-1.1 8.5-1.1 13.2-1.1h37.5c5.2 0 10.3 0 15.4-.1h163.8c5.2.3 7.3 1.2 10.4 5.4 2.6 5.7 1.7 8.9-1.1 14.4-2.4 4.9-4.4 9.8-6.3 14.9-.8 2-1.6 4.1-2.4 6.1-.2.5-.2.5-1.2 3.2-2.1 5.3-4.2 10.6-6.4 15.9-.4 1.1-.8 2.1-1.2 3.2-.8 2-1.7 4.1-2.5 6.2-1.1 2.7-2.2 5.5-3.3 8.3-3.2 8-6.4 15.9-9.8 23.8-3.5 8.4-6.9 16.9-10.3 25.3-2.8 7.1-5.7 14.1-8.5 21.1-3 7.3-5.9 14.6-8.6 22.1-5 13.1-10.3 26.1-15.8 39.1-3.6 8.5-6.9 17.1-10.1 25.7-1.8 4.5-1.8 4.5-3.5 7.9-1.3 2.6-1.3 2.6-1.3 5.6h3.6l85.8.3c13.9.1 27.7.1 41.5.1 12.1.1 24.2.1 36.2.2h19.2c6 0 12 .1 18 .1h15.7c1.6.1 3.3.1 5.1.1 3.9.2 3.9.2 6.9 2.2-1 5-1 5-4 7-3.4.3-6.9.4-10.4.5-10 .3-10 .3-15.6 2.5-.6-.3-1.3-.6-2-1v2h4c2 3.9 1.2 8.8 1.1 13.1v3.1c0 6-.4 11.7-1.1 17.8h-78c-2-6.9-2.6-12.9-3-20 0-.5 0-.5-.2-3.2-.2-7.4-.2-7.4 3.2-10.8h3v-2c-4.5-.9-8.8-1.1-13.5-1.1h-74.6c-14 0-28.1-.1-42.2-.1h-71.1c-33.8 0-67.6 0-101.4-.1h-45.3c-35.9 0-71.8 0-107.6-.1h-148.2c-3.1-.1-6.3-.1-9.5-.1-52.4 0-104.7 0-157.1-.1h-96.9c-23.5 0-47.1 0-70.6-.1h-116.8c-3.2-.3-3.2-.3-6.2-2.3v-5c5.6-2.8 11-2.3 17.1-2.4h3.9c4.1-.1 8.2-.2 12.3-.2 2.7 0 5.5-.1 8.3-.1l20.4-.3c1.1-4.4.4-7.4-.4-11.8-1-5.6-1.4-11.2-1.9-16.8-1.3-14.5-3-29-4.8-43.4q-1.95-15-3.6-30c-.1-1-.2-2.1-.3-3.2-.6-4.7-1-9.3-1.5-14-.1-1.5-.3-3-.4-4.6-.1-1.3-.2-2.5-.4-3.8-1.6-7.4-6.2-10.8-12.1-15.1-1.4-1.1-2.9-2.1-4.3-3.2-.7-.5-.7-.5-4.3-3.1-3.4-2.5-6.7-5.1-10.1-7.7-1.8-1.5-3.7-2.9-5.6-4.3-9.3-7.1-9.3-7.1-9.3-11h-2c-4-5.4-4-5.4-4-8h-2c-4.3-4.3-4.5-4.5-4.4-10.1v-12c.1-4.4.1-8.7.2-13.1v-8.9c.1-7.3.1-14.6.2-21.9 20.9 2.3 38.5 14.7 54 28 .4.4.4.4 2.6 2.2 3.6 3.2 7.1 6.4 10.4 9.8 1.4 1.4 2.7 2.8 4.1 4.2 6.5 7.2 11.1 15.6 15.9 23.8 1 1.7 2 3.3 3 5 .7 1.9 1.4 3.9 2 5.8 1.1 3.6 2.3 7 3.6 10.5 1.4 3.7 1.4 3.7 2.4 7.8 1 3.7 2.2 6.6 4 9.9 3.3-.3 6.6-.6 10-1-.5-12.7-1.4-25.4-2.4-38.2-.1-1.5-.3-3-.4-4.5-2-24.2-4.3-43.3-17.3-64.2-3.2-5.6-5.6-11.2-8.2-17.1-1.9-4.4-4-8.7-6.2-13-8.3-16.8-15.9-34.5-20.5-52.6-1.2-4.5-2.5-8.8-4.4-13.1-4.3-9.9-7.3-20.5-9.6-31.1-1-4.2-1-4.2-3-9.2-1.3-5.5-2.3-11.1-3.4-16.7-.7-3.7-1.4-7.3-2.1-11-3.6-18.4-7-36.5-6.5-55.3h-2c-.2-3.1-.2-3.1-1-19h2c0-1 0-1-.1-5.9-.2-16.8.3-33.5 1.4-50.3.1-.8.1-.8.4-5.2.7-9 1.7-17.7 3.6-26.5.9-4 1.4-8 1.7-12.1 7.5-.5 7.5-.5 12 4 .4.9.8 1.8 1.3 2.7 2 3.9 4.7 7 7.5 10.4 6.2 8.1 11.3 17 16.2 25.9.8 1.1 1.6 2.1 2.4 3.2 3.2 4.6 5.5 9.5 7.9 14.5 2 3.9 4.4 7.6 6.7 11.3 8 14.4 8 14.4 8 17h8c.1-1.3.2-2.6.4-3.9 1.4-11.4 5.1-22.5 9.6-33.1.3-.6.3-.6 1.6-4 2.9-7.2 5.8-14.2 9.7-20.9 2.3-4.2 4.6-8.5 6.8-12.8.5-.7.5-.7 2.5-4.7 1.6-3 3.1-5.9 4.5-8.9 1.9-3.7 1.9-3.7 4.9-7.7.7-1.6 1.3-3.3 2-5 3.4-1 3.4-1 7-1 4.6 4.7 4.8 6.8 6 13l3 9c12 40.1 12 40.1 12 53h2c0 1.7 0 3.3-.1 5 0 3.5.2 6.9.6 10.5.6 5.5.6 10.9.5 16.5h2c1.3 5.1 1.4 10.1 1.6 15.3 0 1.1.1 2.1.1 3.1.2 5.2.4 10.4.3 15.6h-2v10c6.8 1 6.8 1 9 1 1.6-1.7 3.2-3.5 4.7-5.3 4-4.6 8.2-9 12.3-13.4 3-3.3 3-3.3 5.2-6.1 2.5-3 5.1-3.2 8.8-4.2 4-3.9 4.9-7.8 6.7-13.1 8.7-24.6 21.3-46.3 37.3-66.9.9-1.2 1.8-2.5 2.7-3.8 2.3-3.1 4.5-5.5 7.3-8.2 4.4-4.2 8.6-8.5 12.5-13.1 3.8-4.2 8-7.4 12.5-10.9 1.6-1.4 3.1-2.9 4.7-4.3 5.9-5.4 12.5-9.5 19.3-13.7 1.2-.7 2.4-1.5 3.6-2.2 9.3-5.7 18.8-10.8 28.4-15.8 1-.5 2.1-1 3.1-1.6 15.9-7.8 33.6-12.8 50.9-16.4.3-2.9.7-5.9 1-9 7.6-1.6 15-2.5 22.7-3.1 1.1-.1 2.1-.2 3.2-.3 15-1.1 29.8-.5 44.8.3m-49.7 15.1v1h5v-1Zm-86 27c-1.3 1-2.6 2-4 3h5c-.3-1-.6-2-1-3m158 38v2h-2v2c-1.3.4-2.6.7-4 1-1 .4-2 .7-3 1v3h-5c-.3.7-.6 1.3-1 2-1 .4-2 .7-3 1v2c-1.3.1-2.5.3-3.9.4-4.1.6-4.1.6-6.1 2.6-3 .4-6 .8-9 1-.2-.3-.2-.3-1-2-.3 1.3-.6 2.7-1 4h-3c-.3 2.7-.6 5.3-1 8-3.3-.3-6.6-.6-10-1-.3 2-.6 4-1 6h-9c-.1.5-.1.5-.5 2.9-1.5 3.1-1.5 3.1-5.6 4.5l-3.9.6v4h-5v9h-3c-.3 3.7-.6 7.3-1 11-1.5.1-2.9.2-4.4.3-1.5.3-3 .5-4.6.7-.2.5-.2.5-1 3-.8.2-.8.2-5 1-.3 3-.6 6-1 9h-2v3c-.6.2-.6.2-4 1-.3.2-.3.2-2 1v3h-2c-.3 1-.6 2-1 3-.3.2-.3.2-2 1v2c-.6.4-.6.4-4 2-.6 1.7-1.3 3.3-2 5-.5.2-.5.2-3 1q-1.65 4.5-3 9l-1 1v6c4.4-4.3 8.5-8.7 12.7-13.2 9.4-10.1 19.2-18.7 30.3-26.8.9-.7 1.9-1.3 2.8-2 3.8-2.8 7.5-5.5 11.2-8.1 1-.8 2-1.5 3-2.2.9-.6 1.8-1.3 2.7-1.9 2.3-1.8 2.3-1.8 5.3-4.8-.1-1.5-.2-2.9-.2-4.5.3-7.2 3.1-10.8 7.2-16.5.7-1.1 1.3-2.3 2-3.5 3.5-4.4 7.3-5.5 12.8-5.4 7.2-.2 12.6-3.9 18.2-8.1 8.8-3.5 17.6-5.8 27-7 .9-.1.9-.1 5.4-.9 26.1-1.8 48.7 11 66.5 28.8 3.2 2.2 5.4 2.8 9.2 3.6 5 1.1 7.5 1.8 9.9 6.5 1 3 2.1 6 3 9l2 2c-.3 1-.6 2-1 3l.6 3.3c.7 6.2-1.6 8.8-6.1 13-4.2 4.5-5.1 7.8-6.5 13.7-1.8 6.9-3.8 13.4-6.7 19.9-.4 1-.9 2.1-1.3 3.1-.5 1.3-1.1 2.6-1.6 3.9-2.2 8.2-1.8 16.5-1.7 25-.1 9.5-1.2 13.5-8.8 19.6-9.1 8-12.7 23.2-16 34.6-2.4 8.1-6.2 14.9-13.9 18.9-8.5 2.2-17 1.9-25-2l-1-1c-6 0-6 0-8.4 2.3-.6.9-1.3 1.9-2 2.9s-1.4 1.9-2.1 2.9c-1.5 2.9-1.5 2.9-.5 7.9 5.9 5.5 13 8.6 20.2 12.1 4.3 2.2 8.6 4.6 12.8 6.9 1.7.7 3.3 1.3 5 2-.6-1-1.3-2-2-3h-2v-9h-2c-.3-3.6-.6-7.2-1-11 2.7-.6 5.3-1.3 8-2v-2c1.7-.3 3.3-.6 5-1 1.3-.8 2.6-1.6 3.9-2.5 3.7-2.2 5.9-3.2 10.1-3.5v-4c1.7-.3 3.3-.6 5-1 .3-3.3.7-6.6 1-10h3c0-2.3.1-4.7.1-7v-4c-.1-3.8-.5-7.3-1.1-11 1-.3 2-.6 3-1 .3-1.6.6-3.3.9-5 .4-1.6.8-3.3 1.1-5 1.3-.3 2.7-.6 4-1 .3-2.9.7-5.9 1-9h3c.3-1.3.7-2.6 1-4 1.3-.3 2.7-.6 4-1v-3.9c-.1-9.8.1-19.4 1-29.1h2c.3-.7.3-.7 1.9-4.4 2.1-4.6 2.1-4.6 6.1-5.6 4-.1 7.1 0 11 1 .7-.3 1.3-.6 2-1 .4-3 .8-6 1-9h4v-4c3.3-.3 6.6-.6 10-1v-5h5v-5h-5v-16h-5v-2c-1-.3-2-.6-3-1-.3-1-.6-2-1-3-1.6-.3-3.3-.6-5-1-.3-1.3-.6-2.6-1-4h-4v-3.1c.1-8.3-.2-16.5-1-24.9-1.3-.3-2.6-.6-4-1-.3-2.9-.6-5.9-1-9-1.6-.3-3.3-.6-5-1v-3c-4.9-.3-9.9-.6-15-1v3c-2.1-.1-2.1-.1-13-1v-2c-1.1-.4-2.2-.9-3.4-1.3-3.6-1.7-3.6-1.7-5.6-5.7h-2v-2h-5v-2c-.6-.1-.6-.1-4-1-.3-.6-.6-1.3-1-2-1.8-.1-3.6-.3-5.4-.4-5.6-.6-5.6-.6-7.6-3.6-4.8-.3-4.8-.3-10.6-.2-1 .1-1 .1-5.9.1-1.5.1-2.9.1-4.5.1v-2c-4.5-2.2-10.2-.9-15-2.8137492336099967e-12m137 18v2c.7-.3 1.3-.6 2-1-.6-.3-1.3-.6-2-1m-153 11v4c4.4 2.2 10.1 1.9 14.9 2.3 3.9.6 7.4 1.2 11.2 2.2 7.7 1.8 15.3 2.5 23.2 3.1 2.9.2 5.8.5 8.7.7 1.4.1 2.8.3 4.2.4 5.9.5 11.8 1.2 17.7 2 3.1.3 3.1.3 9.1.3-1.1-5.6-1.7-6-6.2-9.1-.4-.3-.4-.3-2.8-2-19.5-12.3-61.2-22.7-80-3.9m-45 41c-1.8 1.4-3.6 2.7-5.5 4-27.8 20.3-50.5 43-70.5 71-.7 1.1-1.5 2.1-2.3 3.2-4.7 6.7-8.9 13.5-12.7 20.8-1.4 2.7-2.8 5.3-4.2 8-5.8 10.7-5.8 10.7-5.8 16 5-1.2 7.9-3.9 12-7 2-1 4-2.1 6-3-4.4 7.4-10.5 11.5-17.5 16.2-2.8 2.1-5.1 4.4-7.5 6.8-22.1 21-22.1 21-31.2 28.6-2.8 2.4-2.8 2.4-2.8 4.4 5.4-.5 10-2 15.1-3.9 13.4-5 27.2-8.1 41.2-11.2 11.4-2.4 22.7-5 33.7-8.9 2.1-.6 4.3-1.3 6.4-1.9 9.6-3 18.6-6.4 27.6-11.1.8-.4.8-.4 4.8-2.3 16.1-8.3 30.9-18.9 45-30.2 2.8-2.1 5.6-4.2 8.5-6.2 14.2-9.9 27-21.8 40-33.2 8.4-7.3 16.9-14.3 25.7-21.1 1-.8 2-1.5 3.1-2.3 8.9-6.9 18.3-12.9 27.9-18.7v-3c-2-1-2-1-6.5-.9-8 0-15.7-1-23.6-2-3.1-.3-6.3-.7-9.4-1.1-1.5-.1-3-.3-4.5-.5-4.4-.5-8.9-1-13.3-1.4-20.4-2.3-41.9-4.9-60.8-13.4-8.5-3.7-12-1.4-18.9 4.3m-167 10v9h9v-9Zm406 7 1 3Zm-102 8c-4.2 2.9-8.4 5.6-12.7 8.3-10.6 6.8-20.2 14-29.3 22.7-.9.8-1.8 1.7-2.7 2.5-6.8 7.4-4.1 17.5-2.3 26.5 3.1 5.1 3.1 5.1 6 8 .3.4.7.7 1 1 5.5.5 9.6-.1 14.7-2 5.9-2.1 11-2.2 17.2-1.8 3.8-.2 6.3-1.4 9.1-4.2.2-3.9.4-7.8.5-11.8.8-24.1.8-24.1 4.5-35.3.5-1.6 1.1-3.3 1.6-4.9 1.4-4 1.4-4 2.4-6 .1-2.3.1-4.6 0-7-5.6 0-6 .5-10 4m-305 15c-.8 4.5-.8 4.5-1 9-.3.7-.6 1.3-1 2v9h13v-2c1-.3 2-.6 3-1v-2h2c2.8-4.1 2.3-7.1 2-12-3-5-3-5-7.3-5.4-8 .7-8 .7-10.7 2.4m82.8 13.5c-1.1.2-2.1.3-3.2.5-2.5.3-5 .7-7.6 1v5h-5c-.3 7.9-.6 15.9-1 24h-4v13h-2v2h-3c-.6 3.7-1.3 7.3-2 11h-2c-.4 1.6-.8 3.2-1.2 4.9-1.8 5.1-1.8 5.1-6.8 7.1-.8 4.7-.8 4.7-1 9h-3v2h-3v2c-2.1.2-2.1.2-13 1v-2h-2c-.3-.6-.6-1.3-1-2v2h-4c-.3 2-.6 4-1 6-1.5.2-1.5.2-9 1v-4c-1-.3-1-.3-6-2-.3 2-.6 4-1 6h-3c-1.6 5.4-2.5 9.5-1 15 4 4 4 4 6 4-.5 11.3-3.3 15.3-11 23-.6 1.7-1.3 3.3-2 5-3.4 3.3-6.5 4.8-11 6v7h-2v2h-2v2h-2v5c3.2-3.1 6.2-6.3 9.1-9.6 6.5-7.2 13.7-13.6 21.1-19.9 3.8-3.5 7.2-7.2 10.6-11 4.1-4.6 8.3-8.8 13.2-12.5v-2c.7-.3.7-.3 4-2 12.9-11.1 22.9-22 30.3-37.4 3.6-7.5 7.6-14.9 12-22 2.7-4.6 2.7-4.6 4.2-7.6 4.1-8.1 9.9-15.3 15.1-22.6.4-.6.4-.6 2.4-3.4l2.4-3.3c.5-.9 1.1-1.8 1.6-2.7-.2-.3-.2-.3-1-2-5.1 0-10.1.8-15.2 1.5m120.1 51.5c-4.7 4.1-9.7 7.7-15 11.1-4.4 2.9-8.6 5.9-12.9 8.9-.9.6-1.8 1.2-2.8 1.9-7.1 4.7-7.1 4.7-8.2 9.1 4.8 6.4 11.3 13.4 19 16l4 4q3 1.65 6 3c1 .6 2.1 1.1 3.1 1.7 2.9 1.3 2.9 1.3 6.9 2.3-5.1-.5-7.4-1.2-12-4-2.1-.8-4.2-1.6-6.3-2.3-5.4-2-9.9-4.5-14.7-7.7h-2c-.6-1.3-1.3-2.6-2-4-4.8-5.1-6.6-7-14-7-3.1 1.5-3.1 1.5-6.3 3.3-5.1 3-10 4.9-15.7 6.7-1.4.5-2.8 1-4.3 1.5-8.1 2.8-16.1 5.2-24.4 6.9-3.2.6-6.4 1.4-9.5 2.2q-5.25 1.35-10.5 2.4c-5.2 1-10.3 2.2-15.4 3.5-1.6.4-3.3.8-5 1.2-4.7 1.3-9.3 2.8-13.9 4.3-1.4.4-2.8.7-4.2 1-3.6 1-6.5 2.3-9.8 4-1.1.3-2.2.6-3.3 1-30.4 8.7-49.2 36-61.5 63.3-1 2.4-2.1 4.7-3.2 7-4.3 10.1-7.5 20.1-10 30.7-2 6.9-4.2 13.8-6.4 20.7-2.6 7.9-4.8 15.9-6.8 24-1 4.2-2.4 8.2-3.8 12.3-2.7 9.7-4.7 19.3-6.2 29.2-.8 3.8-.8 3.8-2.3 7.3-1.7 3.9-2.3 7.5-3 11.7-1 6.1-2.2 12-3.7 17.9-2.9 11.1-4.8 22.4-6.8 33.6-.8 4.4-1.7 8.7-2.7 13-3.5 16.1-6.5 39.9 3.1 54.3.6.9 1.2 1.8 1.8 2.8 4.4 5.4 10.4 4.5 16.8 4.5h22.9c7.4.1 14.8.1 22.2.1h107c12.9.1 25.8.1 38.6.1h63.6c1.1 0 2.2 0 3.2.1 3-.1 3-.1 7.5-.6 2.1-4.1 2.3-7.3 2.7-11.8.3-3.3 1-6.4 1.8-9.6 1.7-7.7 2.4-15.4 3-23.2.5-4.4.5-4.4 2.5-9.4.3-6.6.3-6.6-1-8-4.2-.3-8.3-.6-12.5-.9-9.4-.6-18.7-1.4-28-2.6-8.8-1.1-17.5-1.9-26.3-2.5-9.4-.6-18.7-1.7-28-3.3-6.2-.8-12.3-1.3-18.4-1.7-8.4-.5-16.4-1.5-24.6-3.3-5.3-.9-10.5-1.2-15.8-1.6-11.7-.8-23.1-2.7-34.4-6.1-.3-.6-.6-1.3-1-2l3-.3c.6-.1.6-.1 3.9-.5 1.3-.1 2.5-.3 3.9-.4 3.2-.8 3.2-.8 5.2-3.8.7-3.3 1.3-6.6 2-9.9 1.3-6.5 2.9-13.1 4.5-19.6 2.2-8.8 4.2-17.7 5.9-26.6.9-4.1 2.2-7.9 3.6-11.9l1.5-6.3c1.5-5.7 1.5-5.7 5.5-9.7-.3 1.7-.6 3.3-.9 5-.8 5.2-1.5 10.4-2.1 15.7-.7 5.9-1.7 11.5-3 17.3l-.9 8.4c-.8 6.8-2.2 13-4.1 19.6-.6 3.5-1.1 6.9-1.6 10.4-.4 2.6-.4 2.6-1.4 4.6-.2 3.5-.2 3.5 0 7 3.6 2.4 5.7 2.4 9.9 2.8l4.2.3c1.5.1 3 .2 4.5.4 18.2 1.5 18.2 1.5 26.2 3.1 8.5 1.7 17 2.1 25.6 2.7 8.9.5 17.5 1.6 26.3 3 7.2 1 14.5 1.5 21.8 2 8.1.5 16 1.7 24 3.1 6.2.9 12.3 1.1 18.6 1.3 6.5.5 9.9.9 13.9 6.3 4.5 1.1 6 .7 10.3-.7 1.1-.4 2.3-.8 3.5-1.2 4.8-1.6 9.7-3.4 14.4-5.4 7.3-3.2 14.6-6.1 22.3-8.1 5.5-1.9 7.9-4.4 10.5-9.6.2-4.4.4-8.8.5-13.3.1-2.7.1-5.5.2-8.3.1-4.3.2-8.7.4-13l.3-12.6c0-.7 0-.7.1-3.9.3-9 .6-18.3 3.5-26.9 1.7 4.5 2.4 8.4 2.6 13.1l.3 4.8c.2 4.9 0 9.8-.2 14.8-1 31.9-1 31.9 10.3 43.3 1.4 1.4 2.7 2.8 4.1 4.3 4.1 2.9 8.2 4.8 12.9 6.7 5.6 2.6 10.8 5.8 16 9 1.2.6 2.3 1.2 3.5 1.8 9.5 6 21.1 16.3 24.5 27.2l-.6 5.1c-.4 4.9-.4 4.9 1.7 7.5 14.6 11.9 44.9 14.1 62.9 11.4 4.5-3.2 6-6.7 7.6-11.9.5-1.2.9-2.4 1.3-3.7.2-.6.2-.6 1.1-3.4 1-2.3 2-4.6 3-7 .7-1.9 1.5-3.8 2.2-5.7 2.2-5.8 4.5-11.5 6.8-17.3 1.3-3.3 2.7-6.6 4-10 .3-.6.3-.6 1.6-3.9 4.1-10.4 4.1-10.4 4.4-15.1-4.4-4.4-9.4-4-15.3-4.5-2.4-.3-4.7-.5-7.1-.8-1.2-.1-2.3-.2-3.5-.3-3.7-.4-7.3-.9-11-1.5-5.7-.9-11.4-1.4-17.1-1.9.3-1 .5-2 .8-3 .3-5.1-1.2-7.5-3.8-12-3.1-5.5-6-11.1-8.9-16.7-2.4-5-5-10-7.6-14.9-4.3-7.8-8.2-15.8-12.2-23.8-3.7-7.5-7.5-14.9-11.5-22.2-1.6-3.1-3.2-6.2-4.8-9.4-.5-1-1-2-1.5-3.1-1.2-2.3-2.4-4.6-3.5-7-1.3-2.5-2.6-5.1-3.9-7.7-3.7-7.3-7.2-14.6-10.7-22-3.3-6.9-6.7-13.6-10.4-20.2-.7-1.4-1.5-2.8-2.2-4.3-5.5-9.2-11.2-18.1-19.8-24.7l-4-4c-6.4-4.7-13.1-8.9-19.9-13.1-2.1-1.3-4.2-2.6-6.3-4-2.8-1.9-5.7-3.4-8.8-4.9-10.6-5.7-21.3-11.7-31.4-18.5-3.6-2.5-3.6-2.5-6.6-3.5.6-6.9 3.3-11.6 6.6-17.6 1.6-3.8 1.8-5.5.4-9.4-2.2-2.2-4.4-4.4-6.6-6.5-8.3-8.5-11.6-18.9-12.4-30.5-5.9-1.2-5.9-.8-10.1 3m-257.9 59c-1.8 4.3-3.6 8.6-5.3 13-4.5 11.1-9.3 21.9-14.8 32.6-2.3 4.7-4.2 9.2-5.5 14.2-2.8 10.7-9 19.4-15.4 28.2-2.9 4.2-5.5 8.6-8 13-1.9 3.5-3.9 6.9-6.1 10.2-2.7 4.1-4.8 8.4-6.9 12.8-.4.9-.4.9-2.6 5.3-6.1 13.6-6.5 28.5-6.4 43.3 0 8.1-.5 16.3-1 24.4h-2v8c.5-.1.5-.1 2.9-.5 4.7-.5 9.2-.6 13.9-.7h5.6c3.9-.1 7.8-.1 11.8-.1 1.8 0 3.7-.1 5.6-.1h5.1c4.1-.6 4.1-.6 7.1-4.6.7-2.4 1.3-4.9 1.9-7.4.3-1.5.7-3 1-4.6.4-1.6.7-3.3 1.1-5 2.5-10.9 5-21.5 9-32 3.2-9.5 6.2-19.2 7.6-29.2.4-2.8.4-2.8 2.4-3.8 1.1-3.6 2.1-7.3 3-11 2.2-8.2 4.7-16.1 8-24 .6-1.4 1.2-2.8 1.8-4.3 3.7-8.9 7.5-17.5 12-26 1.2-2.7 1.2-2.7 1.2-5.7-2 1-2 1-3 4-1 .7-2 1.3-3 2-8.8-16.6-14.9-33.8-20-52Zm467 6v5c2-2 2-2 2-5Zm-6 15v8c2-3 2-3 3-8Zm-3 10v5c2-2 2-2 2-5Zm-553 144v6h4c-.3-1.6-.6-3.3-1-5-1-.3-2-.6-3-1m438 78c-1 5-1 5 1 8 1.7-.3 3.3-.6 5-1-1-5-1-5-3-7Zm-24 22c-1.7.5-1.7.5-10 3q-8.4 3-16.5 6.6c-4.4 1.8-8.8 3-13.4 4.3-4.8 1.8-7.5 3.4-9.2 8.3-1.3 7.6-2.3 15-2.7 22.7-.2 3.1-.2 3.1-.9 7.8-.3 3.3-.3 3.3 1.7 6.3 21.7 2.6 53.9-1.9 70-18 7.5-6.5 14.8-5.7 24-4 8.6 2.6 15.7 6.8 22.6 12.5 2.4 1.5 2.4 1.5 7.4 1.5.3-1.6.7-3.3 1-5-3.2-2.7-3.2-2.7-8-6-2.8-2.3-5.5-4.6-8.3-6.9-2.8-2.1-5.5-3.6-8.7-5.1-7.9-3.7-7.9-3.7-9-6 6.5 0 7.7.8 13 4 1.6.8 3.2 1.5 4.8 2.3 7.1 3.7 13.1 8 18 14.3.7.8 1.5 1.6 2.2 2.4.8-.1.8-.1 5-1 0-7.2-1.2-7.9-6-13-1.2-1.5-2.3-3.1-3.5-4.7-3.5-4.3-3.5-4.3-8.5-7.3l-3-3c-2.3-1-4.6-2-7-3 11.8 0 20.1 7 27 16 .3.9.3.9 2 5 1.3-.3 2.7-.6 4-1 1.4-5.5-.5-8.1-3.9-12.5-10.6-11.7-22.8-20.1-37.8-25-4.3-1.5-4.3-1.5-9.3-4.5-11.1-1.2-27.7 2.8-37 9m19 47c.3 1.7.7 3.3 1 5l16.9.3c1.6 0 3.2 0 4.9.1h4.6c.7 0 .7 0 4.3.1 1.1-.2 2.2-.3 3.3-.5.7-1.3 1.3-2.6 2-4-1.6-1-3.3-2-5-3-.8-.5-.8-.5-5-3-11-2.2-17.6-.6-27 5m67 0v5c6.5 1.3 6.5 1.3 11-1-1-3-1-3-3-4Zm-96.9 15.5c-8.9 2.4-17.9 2.8-27.1 3.1-1.1 0-2.3.1-3.5.1-2.8.1-5.7.2-8.5.3-.3 1-.6 2-1 3 6.9 0 13.9.1 20.8.1h20.4c7.5 0 7.5 0 10.8-1.1.8-3 .8-3 1-6-3-3-9.2-.6-12.9.5m-346.1 1.5c-1 3-1 3 0 5 1.3-.3 2.7-.6 4-1-.6-1.3-1.3-2.6-2-4Z"/><path fill="#eaf7ee" d="M479.688 154.875c.9 0 .9 0 5.2.2 1.6.1 3.3.2 4.9.3 1.5.1 3 .1 4.5.2 3.7.4 3.7.4 7.7 2.4 2.3.4 4.7.7 7 1 2.1 2.1 1.7 6.2 2 9 .7.2.7.2 4 1v4h4v-2c51.3 9 100.3 45.3 131.5 85.7 2.2 2.9 4.5 5.8 6.8 8.6 5.6 7.1 10.2 14.3 14.1 22.4 1.8 3.7 3.7 7.5 5.6 11.2 23.5 47.1 32.4 100.1 23 152.1-.2 1.5-.5 3-.7 4.5-6.3 35.3-22.5 71.8-44.4 100.1q-2.1 2.7-3.9 5.4h-2c-.6 1.3-1.3 2.7-2 4-1.6 1.9-3.2 3.7-4.9 5.5-.8 1-1.7 1.9-2.6 2.9-2.1 2.2-4.3 4.4-6.5 6.6-.6-1.3-1.3-2.6-2-4l-3-3c-4-4-4-4-4-6h-2c-2-5-2-5-2-11h-2c-2-3.9-1.6-8.7-2-13h-5c-1.9-1.9-1-5.4-1-8h3c.3-2.8.5-5.6.8-8.3 0-.8 0-.8.4-4.8-.1-1.3-.1-2.5-.2-3.9-1.3-.6-2.6-1.3-4-2l-1-1c-3.3-.7-6.6-1.3-10-2v-2c-1.8-.1-3.5-.3-5.4-.4-5.6-.6-5.6-.6-7.6-1.6v-2c-3.6-1.4-7.3-2.8-11-4v-2c-1.3-.6-2.6-1.3-4-2-1-.8-1.9-1.7-2.9-2.5-3.1-2.5-3.1-2.5-8.1-3.5v-2c-4-1.3-7.9-1.3-12.1-1.5-2.9-.5-2.9-.5-6.9-3.5-.2-4.7-.2-4.7 0-9h-2c-1-3.9-1.4-6.9-1-11 4-2 4-2 8-2v-2c3.3-1.7 6.7-3.4 10-5 1-.6 2-1.3 3-2h6v-4c1.7-.3 3.3-.6 5-1 .3-3.3.7-6.6 1-10h3c-.1-1.5-.2-3.1-.3-4.7-.1-2-.3-4.1-.4-6.1 0-1-.1-2-.2-3.1-.4-7.7-.4-7.7 2.9-11.1.3-1.3.7-2.7 1-4.1.3-1.3.7-2.6 1-3.9 1-.3 2-.6 3-1 1.2-4.5 1.2-4.5 2-9h3c.3-1.6.7-3.3 1-5h4c-.2-1-.3-2.1-.5-3.2-2.3-22.1-2.3-22.1 1.5-29.8h2c.4-1.4.8-2.9 1.2-4.3 1.8-4.7 1.8-4.7 6.8-6.7 4.5-.2 8.6.2 13 1 0-1.1 0-2.2-.1-3.3.1-3.7.1-3.7 1.1-5.7h4v-4c3.3-.3 6.6-.6 10-1v-5h5v-5h-5v-16h-5v-2c-1.3-.3-2.6-.6-4-1v-3c-1.6-.3-3.3-.6-5-1-.3-1-.6-2-1-3-1.3-.3-2.6-.6-4-1-.7-9.3-1.1-18.6-1-28-1.3-.3-2.6-.6-4-1-.7-3-1.3-6-2-9-1.3-.3-2.6-.6-4-1v-3c-1.5 0-3.1.1-4.7.1-5.3-.1-5.3-.1-10.3-1.1v3c-4.6.1-8.5-.1-13-1v-2c-.5-.1-.5-.1-3.4-.9-3.6-1.1-3.6-1.1-5.6-3.1v-3h-2v-2h-5v-2c-1.6-.3-3.3-.6-5-1v-2c-1.8.1-3.5.2-5.4.3-1.8-.1-3.7-.2-5.6-.3-.6-1.3-1.3-2.6-2-4-4.8-.4-4.8-.4-10.6-.2-1.9 0-3.9 0-5.9.1-1.5 0-2.9.1-4.5.1v-2h-15v2h-2v2c-4 2-4 2-7 2v3h-5c-.3 1-.6 2-1 3h-3v2c-1.5.5-2.9 1-4.4 1.5-4.6 1.5-4.6 1.5-5.6 2.5h-10c-.3.7-.6 1.3-1 2h-3c-.3 2.7-.6 5.3-1 8h-9c-.6 1.7-1.3 3.3-2 5h-9c0 1-.1 1.9-.1 2.9-.9 3.1-.9 3.1-3.8 4.5-3.1.6-3.1.6-6.1.6v4h-5v9h-3c-.3 3.7-.6 7.3-1 11-3 .4-5.9.7-9 1-.3 1.3-.6 2.7-1 4h-5c-.3 3-.6 6-1 9h-2v3c-1 .4-1 .4-6 2v3h-2c-.3 1.3-.6 2.7-1 4h-2v2c-1.6 1.7-3.3 3.4-5 5-3.7 3.8-4.4 7-6 12-1 2.7-2 5.4-3 8h-2c-.3 1.3-.6 2.7-1 4l-11.7 1.5c-1.1.2-2.2.3-3.3.5-4.7.6-9.2 1-14 1v5h-5v4c.1 1.7.1 3.4.1 5.2v5.2c-.1 4.6-.1 4.6-1.1 9.6h-4v13h-2v2h-3c-.1 1.5-.3 2.9-.4 4.4-.6 4.6-.6 4.6-1.6 6.6h-2c-.1 1.3-.2 2.5-.2 3.8-.8 4.2-.8 4.2-4.8 8.2h-3c0 1.1.1 2.3.1 3.4-.1 3.6-.1 3.6-1.1 5.6h-3v2h-3v2c-4.3.4-8.6.7-13 1v-2h-7v6c-2.2 2.2-7.1 1.1-10 1v-4c-1.6-.3-3.3-.6-5-1-.6 1.7-1.3 3.3-2 5h-3l-.6 5.7c-.1 1.1-.2 2.1-.4 3.2 0 3.1 0 3.1 2 8.1 1.3.7 2.7 1.3 4 2 .8 7.7.4 12.3-5 18h-2c-.6 1.7-1.3 3.3-2 5h-2c-.3 1.7-.6 3.3-1 5-3.8 3.8-5.6 4.9-11 6-.3 2.3-.6 4.6-1 7h-2v2h-2v2h-2v5c-1 .4-2 .7-3 1-.3 1.3-.6 2.7-1 4-1.3.7-2.6 1.3-4 2-23.2-44.5-23.2-44.5-17-65.3.3-1.2.7-2.3 1-3.4 2.1-7.2 4.3-14.4 6.5-21.6 5-16.3 9.3-32.9 12.5-49.7h3c0-1.9.1-3.8.1-5.7.3-12.3.7-24.2 3.2-36.3 1.3-7.3 1.5-14.6 1.7-22h3v-7h-7v5c-1.6 1-3.3 2-5 3-1.8 1.6-3.6 3.3-5.4 5-3.7 3.4-7.3 6.3-11.6 9 2-8 4.6-15.3 7.9-22.9.5-1 1-2.1 1.5-3.2 7.2-16 16-30.9 26.6-44.9.4-.5.4-.5 2.5-3.3 3.6-4.9 7.1-9.4 11.5-13.7 4.3-4.2 8.6-8.5 12.5-13.1 3.8-4.2 8-7.4 12.5-10.9 1.6-1.4 3.1-2.9 4.7-4.3 5.9-5.4 12.5-9.5 19.3-13.7 1.2-.7 2.4-1.5 3.6-2.2 9.3-5.7 18.8-10.8 28.4-15.8 1-.5 2.1-1 3.1-1.6 15.9-7.8 33.6-12.8 50.9-16.4.3-2.9.7-5.9 1-9 7.6-1.6 15-2.5 22.7-3.1 1.1-.1 2.1-.2 3.2-.3 15-1.1 29.8-.5 44.8.3m-49.7 15.1v1h5v-1Zm-86 27c-1.3 1-2.6 2-4 3h5c-.3-1-.6-2-1-3m295 56v2c.7-.3 1.3-.6 2-1-.6-.3-1.3-.6-2-1m-365 62v9h9v-9Zm406 7 1 3Zm-407 23c-.8 4.5-.8 4.5-1 9-.3.7-.6 1.3-1 2v9h13v-2c1-.3 2-.6 3-1v-2h2c2.8-4.1 2.3-7.1 2-12-3-5-3-5-7.3-5.4-8 .7-8 .7-10.7 2.4m412 130v5c2-2 2-2 2-5Zm-6 15v8c2-3 2-3 3-8Zm-3 10v5c2-2 2-2 2-5Z"/><path fill="#007a31" d="M155 216c3.1 3.1 3.1 6.8 4 11 .4 1.3.9 2.6 1.3 3.9C174 272.1 174 272.1 174 289h2c0 1.6 0 3.3-.1 4.9 0 3.6.2 7 .6 10.5.6 5.6.6 11 .5 16.6h2c1.3 5.1 1.4 10.1 1.6 15.3 0 1 0 2.1.1 3.1.2 5.2.4 10.4.3 15.6h-2v10c6.7 1 6.7 1 9 1 1.6-1.8 3.1-3.5 4.7-5.3 4-4.6 8.2-9 12.3-13.4 3-3.3 3-3.3 5.2-6.2 1.8-2.1 1.8-2.1 5-2.9 5.4-1.7 8-5.1 11.8-9.2 2.6-2.4 5.3-4.7 8-7 1.3-1.1 2.5-2.3 3.8-3.4 3.2-2.6 3.2-2.6 6.2-2.6v-5h7v7h-3c0 1.1.1 2.2.1 3.3.1 7.9 0 15.2-1.5 22.9-1.8 8.9-2.1 17.7-2.4 26.8-.1 3.8-.4 7.3-1.2 11h-3c0 .7 0 .7-.3 4.1-.8 7-2.5 13.5-4.3 20.3-.3 1.4-.7 2.8-1 4.1-3 11.2-6.2 22.3-9.5 33.3-1.7 5.5-3.2 11.1-4.7 16.7-5.4 18.8-13.4 36.6-22.2 54-2.4 4.7-4.3 9.2-5.6 14.3-2.8 10.6-9 19.4-15.4 28.2-2.9 4.2-5.5 8.5-8 13-1.9 3.5-3.9 6.8-6.1 10.1-2.7 4.1-4.8 8.5-6.9 12.9-.9 1.7-1.7 3.5-2.6 5.2-6.2 13.8-6.5 28.7-6.4 43.5-.1 20.5-.1 20.5-2 24.3h-2v9c-3.5.3-7 .5-10.4.7-1 .1-1 .1-5.9.4-9.7-.2-9.7-.2-14.7-3.1-1.2-4.4-1.7-7.7-1.9-12.2-.1-1.2-.2-2.5-.3-3.8-.3-4.3-.5-8.7-.8-13-.4-5.2-.7-10.4-1.1-15.6-.3-3.4-.5-6.8-.7-10.2-1.9-27.2-1.9-27.2-8-38.4-.7-1.4-1.4-2.7-2.1-4.1-1.8-3.2-3.7-6.5-5.7-9.7-3.4-5.8-6.1-11.9-8.7-18.1-1.9-4.4-4-8.7-6.2-13-8.3-16.7-15.9-34.4-20.5-52.5-1.2-4.6-2.5-8.8-4.4-13.1-4.3-9.9-7.3-20.5-9.7-31.1C42 434 42 434 40 429c-1.3-5.5-2.3-11.1-3.4-16.7l-2.1-11.1c-3.6-18.3-7-36.4-6.5-55.2h-2c-.3-6.3-.7-12.5-1-19h2c0-2-.1-3.9-.1-6-.2-16.8.2-33.4 1.4-50.2.1-1.7.2-3.5.4-5.3.6-8.9 1.7-17.6 3.6-26.4.9-4 1.3-8 1.7-12.1 7.5-.5 7.5-.5 12 4 .4.9.8 1.7 1.2 2.6 2.1 3.9 4.8 7.1 7.5 10.5 6.3 8.1 11.4 17 16.3 25.9.8 1.1 1.6 2.1 2.4 3.2 3.1 4.6 5.5 9.4 7.9 14.5 2 3.9 4.3 7.6 6.7 11.3 8 14.4 8 14.4 8 17h8c.1-1.3.2-2.6.4-3.9 1.4-11.4 5.1-22.6 9.6-33.1.5-1.3 1.1-2.6 1.6-4 2.9-7.2 5.8-14.2 9.7-20.9 2.3-4.2 4.6-8.5 6.8-12.8.4-.8.4-.8 2.5-4.7 1.6-3 3.1-6 4.5-8.9 1.9-3.7 1.9-3.7 4.9-7.7.7-1.7 1.3-3.3 2-5 5-1 5-1 9 1m-32 428v6h4c-.3-1.6-.7-3.3-1-5-1-.3-2-.7-3-1"/><path fill="#2e2e2e" d="M934 0h6c.2 7.6.3 15.1.5 22.7 0 1.2 0 2.3.1 3.6.5 26.9.5 53.9.4 80.9v5c-.1 3.1-.1 6.1-.1 9.2v7.8c.1 2.8.1 2.8 1.1 4.8.8.1.8.1 4.8.8 5.3 1.2 7 1.9 10.2 6.2 1.2 4.9 1.1 9.2 1.1 14.2 0 1.9-.1 3.7-.1 5.6v4.2c.9.1 1.7.2 2.6.3 6.6 1.3 12.5 4.7 18.4 7.7v2c.8.2 1.7.5 2.6.8 16.5 6 28 18.9 37.4 33.2.4.3.4.3 2.5 1.9 3 2.5 4.2 4.8 5.8 8.4.5 1.1 1 2.2 1.6 3.3 1.2 3.7 1.2 6.5 1.1 10.4.5 2.9 1.1 5.8 1.8 8.6.3 1.5.6 2.9.9 4.4 1.3 4 1.3 4 3.5 6.7 1.8 2.3 1.8 2.3.8 7.3-5 3-5 3-9 2-.3-.7-.7-1.3-1-2-3.1-.6-3.1-.6-6-1v5h-12v-4h-10v5h-34v-5h-42v5c-15.8-.3-31.7-.7-48-1v-4c-4.1.1-8.2.2-12.3.4-1.2 0-2.3 0-3.5.1-8.9.3-8.9.3-12.2 2.5-6.5-.5-6.5-.5-9-3 0-3.2 0-3.2.3-7 .1-1.3.2-2.5.3-3.8.4-3.2.4-3.2 1.4-5.2v-4c.8-.3.8-.3 5-2 0-6 0-6-1-9 .7-1.7 1.3-3.3 2-5h4c-.2-.9-.4-1.9-.6-2.9-.4-3.1-.4-3.1 1.6-5.1.7-.3 1.3-.7 2-1 .3-1.7.7-3.3 1-5 3-4 3-4 6-5 1.6-2.7 3.3-5.3 4.9-8 3.4-4.8 7.7-8.3 12.1-12l3-3h2v-2c2.7-1.7 5.3-3.3 8-5l4-4c2.4-1.3 4.9-2.4 7.4-3.6 4.5-1.9 8.4-3.9 12.6-6.4.6-3.6.6-3.6.6-7.8.1-7 .6-11.8 6.1-16.4 3.7-2 7.2-2.9 11.3-3.8 2.4-2.4 1.2-9.7 1.2-13.2v-3.9c.1-4.3.1-8.6.1-12.9 0-2.9.1-5.9.1-8.8 0-7.9.1-15.7.1-23.5.1-7.9.1-15.9.2-23.8Zm46 210 1 2Z"/><path fill="#00b050" d="M0 566c20.9 2.3 38.5 14.7 54 28 .9.7 1.7 1.5 2.6 2.2 3.6 3.1 7.1 6.3 10.4 9.8.7.7.7.7 4.1 4.2 6.5 7.1 11.1 15.5 15.9 23.8 1 1.6 2 3.3 3 5 .7 1.9 1.4 3.9 2 5.8 1.1 3.5 2.3 7 3.6 10.4C97 659.1 98 663 99 667c.4 1.3.7 2.6 1.1 3.9.9 3.1.9 3.1.9 5.1-1.1-.2-2.2-.4-3.4-.6-4.6-.4-4.6-.4-8.9 0-8.2.9-16.4.7-24.7.6-.7 1.6-1.3 3.3-2 5-5.6-1.3-7.5-3.6-11-8-2-1.4-4-2.7-6-4-6.7-4.9-13.2-9.9-19.7-15.2-2.2-1.7-4.5-3.4-6.7-5-6.6-5.1-6.6-5.1-6.6-8.8h-2c-4-5.4-4-5.4-4-8H4c-4.3-4.3-4.5-4.5-4.5-10.1v-3.8c.1-1.3.1-2.7.1-4.1v-4.1c0-4.4.1-8.8.2-13.1v-9c0-7.2.1-14.5.2-21.8"/><path fill="#007a31" d="M950 173c15.4-.5 15.4-.5 22 3 .6.1.6.1 3.4.4.8.2 1.7.4 2.6.6.2.7.2.7 1 4 2 .3 4 .7 6 1 .3.7.3.7 2 4 1.6.7 3.3 1.3 5 2 4.5 5 6.9 8.2 6 15-1.1.3-2.2.5-3.4.8-3.6 1.2-3.6 1.2-5.6 4.2-4.4 1.8-8.1 2.3-13 3v17c-2 .7-4 1.3-6 2-.2.3-.2.3-1 2-2.9.4-2.9.4-6.6.6l-3.6.3c-.9 0-1.8 0-2.8.1v2h-2v2h-15c.3.7.7 1.3 1 2-.1 2.4-.2 4.8-.4 7.1l-.3 3.9-.3 3c-66.7 3.3-66.7 3.3-80-2v-4h-2c-3.4-9.9-1.9-18.2 1-28 1-1.3 2-2.6 3-4 1-1.7 2-3.3 3-5l3-3c.3-.7.7-1.3 1-2 2.7-.1 5.4-.2 8.1-.1h4.4c1.2.1 2.3.1 3.5.1.1 1.1.2 2.3.4 3.4.6 3.6.6 3.6 2.6 4.6h7c.2 1.2.2 1.2 1 7 6 0 6 0 7-1 .4-3 .7-6 1-9h7v5h9c0-1.5 0-3.1-.1-4.7.1-5.3.1-5.3 1.1-10.3h4c.1-1.8.3-3.5.4-5.4.6-5.6.6-5.6 1.6-7.6 3.3-1.1 6.6-2.1 10-3v-5c4.8-.1 9.3.2 14 1Z"/><path fill="#a9dcc5" d="M1070 826v2h71v-2h4c1.9 3.9 1.1 8.8 1.1 13.1v3c0 6.1-.4 11.8-1.1 17.9h-78c-2-6.9-2.7-12.9-3-20-.1-1-.1-2.1-.2-3.2-.3-10.8-.3-10.8 6.2-10.8"/><path fill="#e6e6e6" d="M479.688 154.875c1.7.1 3.4.2 5.2.2 1.6.1 3.3.2 4.9.3 1.5.1 3 .1 4.5.2 3.7.4 3.7.4 7.7 2.4 2.3.4 4.7.7 7 1 2.2 2.2 1.7 7 2 10-10.5 1.2-20.9 1.2-31.5 1.2h-5.9c-4.1.1-8.2.1-12.3.1h-15.9c-5 0-10.1 0-15.1.1h-15.7c-3.6-.4-3.6-.4-5.6-3.4q-.15-4.5 0-9c7.6-1.6 15-2.5 22.7-3.1 1.1-.1 2.1-.2 3.2-.3 15-1.1 29.8-.5 44.8.3"/><path fill="#eaf7ee" d="M122 548h8v71h-3v20c6.9.3 13.9.7 21 1-.1 4-.3 7.9-.4 11.9-.1 1.1-.1 2.2-.2 3.4-.3 8.5-.3 8.5-1.4 10.7-5-2-5-2-6-3-2.3-.2-4.7-.4-7.1-.6-.6 0-.6 0-3.9-.2-1-.1-2-.1-3-.2.3-1.6.7-3.3 1-5h13v-14h-12c-.3 1-.7 2-1 3-2.3-.7-4.6-1.3-7-2 0-1.2-.1-2.4-.1-3.6-.1-5.5-.2-10.9-.3-16.3-.1-1.9-.1-3.8-.2-5.7 0-1.9 0-3.7-.1-5.6 0-1.6-.1-3.3-.1-5-.2-4.7-.7-9.2-1.2-13.8-.8-15.8 1.1-30.5 4-46"/><path fill="#007a31" d="M1087.895 819.867h35.5c5.9 0 11.7.2 17.6 1.1v7h-71v-7c6-1.2 11.8-1.1 17.9-1.1M875 257c5.9 0 11.9 0 17.8-.1h5.1c8.4 0 16.7.1 25.1 1.1v7c-15.8-.3-31.7-.7-48-1Z"/><path fill="#a9dcc5" d="M131 182h5c.3 1.3.7 2.6 1 4-.7.3-.7.3-4 2-.7 1.7-1.3 3.3-2 5-6.3 9.1-13.1 17.9-23 23h-3c2.8-7.1 5.3-12.8 11-18 .7-.8 1.5-1.5 2.2-2.3.8-.8 1.6-1.7 2.4-2.5s1.5-1.6 2.3-2.4c2.1-1.8 2.1-1.8 5.1-1.8v-4h2c.3-1 .7-2 1-3m-3 457c6.6.3 13.2.7 20 1-.1 4-.3 7.9-.4 11.9-.1 1.1-.1 2.2-.2 3.4-.3 8.5-.3 8.5-1.4 10.7-5-2-5-2-6-3-2.3-.2-4.7-.4-7.1-.6-1.3 0-2.5-.1-3.9-.2-.5 0-.5 0-3-.2.3-1.6.7-3.3 1-5h13v-14h-12Z"/><path fill="#2e2e2e" d="M473 491h12c-2.2 4.4-3.9 5.5-8 8-2.6-2.3-2.6-2.3-5-5 .3-1 .7-2 1-3"/><path fill="#a9dcc5" d="M154 156h5c0 5 0 5-3 8h-5v-5c1-.3 2-.7 3-1Zm78-87c2.2 0 4 1.8 4 3 0 2.2-1.8 4-4 4-1.7 0-3-1.3-3-4 0-1.7 1.3-3 3-3m-66 76c1.7 0 3 1.3 3 3s-1.3 3-3 3-3-1.3-3-3 1.3-3 3-3"/><path fill="#2e2e2e" d="M581 751h5c.7 1.3 1.3 2.6 2 4-5-1-5-1-7-4m-86-267c-.7 1.6-1.3 3.3-2 5-1-.3-2-.7-3-1 3-4 3-4 5-4"/><path fill="#a9dcc5" d="M147 213l4 1Z"/><path fill="#2e2e2e" d="M485 470l3 1Z"/></svg>
